<svg width="24" height="24" viewBox="0 0 24 24" fill="none" xmlns="http://www.w3.org/2000/svg">
<path d="M6.325 12.85C6.175 12.75 6.06266 12.625 5.988 12.475C5.91333 12.325 5.87533 12.1666 5.874 12C5.87266 11.8333 5.91033 11.675 5.987 11.525C6.06366 11.375 6.176 11.25 6.324 11.15L14.474 5.97495C14.5573 5.92495 14.645 5.88762 14.737 5.86295C14.829 5.83828 14.9167 5.82562 15 5.82495C15.2667 5.82495 15.5 5.92095 15.7 6.11295C15.9 6.30495 16 6.54228 16 6.82495V17.175C16 17.4583 15.9 17.696 15.7 17.888C15.5 18.08 15.2667 18.1756 15 18.175C14.9167 18.175 14.8293 18.1623 14.738 18.137C14.6467 18.1116 14.559 18.0743 14.475 18.025L6.325 12.85Z" fill="black"/>
</svg>
