<svg width="33" height="33" viewBox="0 0 33 33" fill="none" xmlns="http://www.w3.org/2000/svg">
<path d="M5.33329 27.6667C4.59996 27.6667 3.9724 27.4058 3.45063 26.884C2.92885 26.3623 2.66751 25.7343 2.66663 25V20.5C2.66663 20.2556 2.7444 20.0445 2.89996 19.8667C3.05551 19.6889 3.25551 19.5778 3.49996 19.5334C4.03329 19.3556 4.4724 19.0334 4.81729 18.5667C5.16218 18.1 5.33418 17.5778 5.33329 17C5.3324 16.4223 5.1604 15.9 4.81729 15.4334C4.47418 14.9667 4.03507 14.6445 3.49996 14.4667C3.25551 14.4223 3.05551 14.3112 2.89996 14.1334C2.7444 13.9556 2.66663 13.7445 2.66663 13.5V9.00004C2.66663 8.26671 2.92796 7.63915 3.45063 7.11737C3.97329 6.5956 4.60085 6.33426 5.33329 6.33337H26.6666C27.4 6.33337 28.028 6.59471 28.5506 7.11737C29.0733 7.64004 29.3342 8.2676 29.3333 9.00004V13.5C29.3333 13.7445 29.2555 13.9556 29.1 14.1334C28.9444 14.3112 28.7444 14.4223 28.5 14.4667C27.9666 14.6445 27.528 14.9667 27.184 15.4334C26.84 15.9 26.6675 16.4223 26.6666 17C26.6657 17.5778 26.8382 18.1 27.184 18.5667C27.5297 19.0334 27.9684 19.3556 28.5 19.5334C28.7444 19.5778 28.9444 19.6889 29.1 19.8667C29.2555 20.0445 29.3333 20.2556 29.3333 20.5V25C29.3333 25.7334 29.0724 26.3614 28.5506 26.884C28.0288 27.4067 27.4008 27.6676 26.6666 27.6667H5.33329Z" fill="black"/>
</svg>
