<svg width="32" height="32" viewBox="0 0 32 32" fill="none" xmlns="http://www.w3.org/2000/svg">
<path d="M5.33331 25.3333V13.3333C5.33331 12.9111 5.42798 12.5111 5.61731 12.1333C5.80665 11.7555 6.06754 11.4444 6.39998 11.2L14.4 5.19996C14.8666 4.8444 15.4 4.66663 16 4.66663C16.6 4.66663 17.1333 4.8444 17.6 5.19996L25.6 11.2C25.9333 11.4444 26.1946 11.7555 26.384 12.1333C26.5733 12.5111 26.6675 12.9111 26.6666 13.3333V25.3333C26.6666 26.0666 26.4053 26.6946 25.8826 27.2173C25.36 27.74 24.7324 28.0008 24 28H20C19.6222 28 19.3058 27.872 19.0506 27.616C18.7955 27.36 18.6675 27.0435 18.6666 26.6666V20C18.6666 19.6222 18.5386 19.3057 18.2826 19.0506C18.0266 18.7955 17.7102 18.6675 17.3333 18.6666H14.6666C14.2889 18.6666 13.9724 18.7946 13.7173 19.0506C13.4622 19.3066 13.3342 19.6231 13.3333 20V26.6666C13.3333 27.0444 13.2053 27.3613 12.9493 27.6173C12.6933 27.8733 12.3769 28.0008 12 28H7.99998C7.26665 28 6.63909 27.7391 6.11731 27.2173C5.59553 26.6955 5.3342 26.0675 5.33331 25.3333Z" fill="black"/>
</svg>
