<svg width="24" height="24" viewBox="0 0 24 24" fill="none" xmlns="http://www.w3.org/2000/svg">
<path d="M7 19.9999C6.45 19.9999 5.97933 19.8042 5.588 19.4129C5.19666 19.0216 5.00066 18.5506 5 17.9999V10.8499L3 12.3749C2.76666 12.5416 2.51666 12.6126 2.25 12.5879C1.98333 12.5632 1.76666 12.4339 1.6 12.1999C1.43333 11.9659 1.36666 11.7159 1.4 11.4499C1.43333 11.1839 1.56666 10.9672 1.8 10.7999L10.775 3.9249C10.9583 3.79157 11.1543 3.69157 11.363 3.6249C11.5717 3.55824 11.784 3.5249 12 3.5249C12.216 3.5249 12.4287 3.55824 12.638 3.6249C12.8473 3.69157 13.043 3.79157 13.225 3.9249L16 6.0499V5.4999C16 5.08324 16.146 4.72924 16.438 4.4379C16.73 4.14657 17.084 4.00057 17.5 3.9999C17.916 3.99924 18.2703 4.14524 18.563 4.4379C18.8557 4.73057 19.0013 5.08457 19 5.4999V8.3499L22.2 10.7999C22.4167 10.9666 22.546 11.1832 22.588 11.4499C22.63 11.7166 22.5673 11.9666 22.4 12.1999C22.2327 12.4332 22.016 12.5626 21.75 12.5879C21.484 12.6132 21.234 12.5422 21 12.3749L19 10.8499V17.9999C19 18.5499 18.8043 19.0209 18.413 19.4129C18.0217 19.8049 17.5507 20.0006 17 19.9999H16C15.45 19.9999 14.9793 19.8042 14.588 19.4129C14.1967 19.0216 14.0007 18.5506 14 17.9999V15.9999C14 15.4499 13.8043 14.9792 13.413 14.5879C13.0217 14.1966 12.5507 14.0006 12 13.9999C11.4493 13.9992 10.9787 14.1952 10.588 14.5879C10.1973 14.9806 10.0013 15.4512 10 15.9999V17.9999C10 18.5499 9.80433 19.0209 9.413 19.4129C9.02166 19.8049 8.55066 20.0006 8 19.9999H7ZM10 10.0249H14C14 9.49157 13.8 9.0539 13.4 8.7119C13 8.3699 12.5333 8.19924 12 8.1999C11.4667 8.20057 11 8.37157 10.6 8.7129C10.2 9.05424 10 9.49157 10 10.0249Z" fill="#130E01"/>
</svg>
